<mxfile host="65bd71144e">
    <diagram id="fsIdior0ZR2mOKT-45AY" name="Page-1">
        <mxGraphModel dx="782" dy="1768" grid="1" gridSize="10" guides="1" tooltips="1" connect="1" arrows="1" fold="1" page="1" pageScale="1" pageWidth="850" pageHeight="1100" math="0" shadow="0">
            <root>
                <mxCell id="0"/>
                <mxCell id="1" parent="0"/>
                <mxCell id="2" value="Variable shadowing" style="shape=table;childLayout=tableLayout;startSize=40;collapsible=0;recursiveResize=0;expand=0;fontStyle=1;" vertex="1" parent="1">
                    <mxGeometry x="140" y="-120" width="400" height="400" as="geometry"/>
                </mxCell>
                <mxCell id="3" value="var a(Block)" style="shape=tableRow;horizontal=0;startSize=40;swimlaneHead=0;swimlaneBody=0;top=0;left=0;bottom=0;right=0;dropTarget=0;fillColor=none;collapsible=0;recursiveResize=0;expand=0;fontStyle=1;" vertex="1" parent="2">
                    <mxGeometry y="40" width="400" height="120" as="geometry"/>
                </mxCell>
                <mxCell id="4" value="var a (Global)" style="swimlane;swimlaneHead=0;swimlaneBody=0;fontStyle=0;connectable=0;fillColor=none;startSize=30;collapsible=0;recursiveResize=0;expand=0;fontStyle=1;" vertex="1" parent="3">
                    <mxGeometry x="40" width="120" height="120" as="geometry">
                        <mxRectangle width="120" height="120" as="alternateBounds"/>
                    </mxGeometry>
                </mxCell>
                <mxCell id="30" value="block" style="text;html=1;align=center;verticalAlign=middle;resizable=0;points=[];autosize=1;strokeColor=none;fillColor=none;" vertex="1" parent="4">
                    <mxGeometry x="20" y="50" width="50" height="30" as="geometry"/>
                </mxCell>
                <mxCell id="5" value="let a (Global)" style="swimlane;swimlaneHead=0;swimlaneBody=0;fontStyle=0;connectable=0;fillColor=none;startSize=30;collapsible=0;recursiveResize=0;expand=0;fontStyle=1;" vertex="1" parent="3">
                    <mxGeometry x="160" width="120" height="120" as="geometry">
                        <mxRectangle width="120" height="120" as="alternateBounds"/>
                    </mxGeometry>
                </mxCell>
                <mxCell id="31" value="Syntax error&lt;br&gt;a is already declared" style="text;html=1;align=center;verticalAlign=middle;resizable=0;points=[];autosize=1;strokeColor=none;fillColor=none;" vertex="1" parent="5">
                    <mxGeometry y="45" width="130" height="40" as="geometry"/>
                </mxCell>
                <mxCell id="6" value="const a={};" style="swimlane;swimlaneHead=0;swimlaneBody=0;fontStyle=0;connectable=0;fillColor=none;startSize=30;collapsible=0;recursiveResize=0;expand=0;fontStyle=1;" vertex="1" parent="3">
                    <mxGeometry x="280" width="120" height="120" as="geometry">
                        <mxRectangle width="120" height="120" as="alternateBounds"/>
                    </mxGeometry>
                </mxCell>
                <mxCell id="32" value="&#10;&lt;span style=&quot;color: rgb(240, 240, 240); font-family: Helvetica; font-size: 12px; font-style: normal; font-variant-ligatures: normal; font-variant-caps: normal; font-weight: 400; letter-spacing: normal; orphans: 2; text-align: center; text-indent: 0px; text-transform: none; widows: 2; word-spacing: 0px; -webkit-text-stroke-width: 0px; background-color: rgb(42, 37, 47); text-decoration-thickness: initial; text-decoration-style: initial; text-decoration-color: initial; float: none; display: inline !important;&quot;&gt;Syntax error&lt;/span&gt;&lt;br style=&quot;border-color: rgb(0, 0, 0); color: rgb(240, 240, 240); font-family: Helvetica; font-size: 12px; font-style: normal; font-variant-ligatures: normal; font-variant-caps: normal; font-weight: 400; letter-spacing: normal; orphans: 2; text-align: center; text-indent: 0px; text-transform: none; widows: 2; word-spacing: 0px; -webkit-text-stroke-width: 0px; background-color: rgb(42, 37, 47); text-decoration-thickness: initial; text-decoration-style: initial; text-decoration-color: initial;&quot;&gt;&lt;span style=&quot;color: rgb(240, 240, 240); font-family: Helvetica; font-size: 12px; font-style: normal; font-variant-ligatures: normal; font-variant-caps: normal; font-weight: 400; letter-spacing: normal; orphans: 2; text-align: center; text-indent: 0px; text-transform: none; widows: 2; word-spacing: 0px; -webkit-text-stroke-width: 0px; background-color: rgb(42, 37, 47); text-decoration-thickness: initial; text-decoration-style: initial; text-decoration-color: initial; float: none; display: inline !important;&quot;&gt;a is already declared&lt;/span&gt;&#10;&#10;" style="text;html=1;align=center;verticalAlign=middle;resizable=0;points=[];autosize=1;strokeColor=none;fillColor=none;" vertex="1" parent="6">
                    <mxGeometry y="35" width="130" height="70" as="geometry"/>
                </mxCell>
                <mxCell id="7" value="let a(block)" style="shape=tableRow;horizontal=0;startSize=40;swimlaneHead=0;swimlaneBody=0;top=0;left=0;bottom=0;right=0;dropTarget=0;fillColor=none;collapsible=0;recursiveResize=0;expand=0;fontStyle=1;" vertex="1" parent="2">
                    <mxGeometry y="160" width="400" height="120" as="geometry"/>
                </mxCell>
                <mxCell id="8" value="" style="swimlane;swimlaneHead=0;swimlaneBody=0;fontStyle=0;connectable=0;fillColor=none;startSize=0;collapsible=0;recursiveResize=0;expand=0;fontStyle=1;" vertex="1" parent="7">
                    <mxGeometry x="40" width="120" height="120" as="geometry">
                        <mxRectangle width="120" height="120" as="alternateBounds"/>
                    </mxGeometry>
                </mxCell>
                <mxCell id="33" value="block" style="text;html=1;align=center;verticalAlign=middle;resizable=0;points=[];autosize=1;strokeColor=none;fillColor=none;" vertex="1" parent="8">
                    <mxGeometry x="30" y="45" width="50" height="30" as="geometry"/>
                </mxCell>
                <mxCell id="9" value="" style="swimlane;swimlaneHead=0;swimlaneBody=0;fontStyle=0;connectable=0;fillColor=none;startSize=0;collapsible=0;recursiveResize=0;expand=0;fontStyle=1;" vertex="1" parent="7">
                    <mxGeometry x="160" width="120" height="120" as="geometry">
                        <mxRectangle width="120" height="120" as="alternateBounds"/>
                    </mxGeometry>
                </mxCell>
                <mxCell id="34" value="block" style="text;html=1;align=center;verticalAlign=middle;resizable=0;points=[];autosize=1;strokeColor=none;fillColor=none;" vertex="1" parent="9">
                    <mxGeometry x="35" y="45" width="50" height="30" as="geometry"/>
                </mxCell>
                <mxCell id="10" value="" style="swimlane;swimlaneHead=0;swimlaneBody=0;fontStyle=0;connectable=0;fillColor=none;startSize=0;collapsible=0;recursiveResize=0;expand=0;fontStyle=1;" vertex="1" parent="7">
                    <mxGeometry x="280" width="120" height="120" as="geometry">
                        <mxRectangle width="120" height="120" as="alternateBounds"/>
                    </mxGeometry>
                </mxCell>
                <mxCell id="36" value="&#10;&lt;span style=&quot;color: rgb(240, 240, 240); font-family: Helvetica; font-size: 12px; font-style: normal; font-variant-ligatures: normal; font-variant-caps: normal; font-weight: 400; letter-spacing: normal; orphans: 2; text-align: center; text-indent: 0px; text-transform: none; widows: 2; word-spacing: 0px; -webkit-text-stroke-width: 0px; background-color: rgb(42, 37, 47); text-decoration-thickness: initial; text-decoration-style: initial; text-decoration-color: initial; float: none; display: inline !important;&quot;&gt;Syntax error&lt;/span&gt;&lt;br style=&quot;border-color: rgb(0, 0, 0); color: rgb(240, 240, 240); font-family: Helvetica; font-size: 12px; font-style: normal; font-variant-ligatures: normal; font-variant-caps: normal; font-weight: 400; letter-spacing: normal; orphans: 2; text-align: center; text-indent: 0px; text-transform: none; widows: 2; word-spacing: 0px; -webkit-text-stroke-width: 0px; background-color: rgb(42, 37, 47); text-decoration-thickness: initial; text-decoration-style: initial; text-decoration-color: initial;&quot;&gt;&lt;span style=&quot;color: rgb(240, 240, 240); font-family: Helvetica; font-size: 12px; font-style: normal; font-variant-ligatures: normal; font-variant-caps: normal; font-weight: 400; letter-spacing: normal; orphans: 2; text-align: center; text-indent: 0px; text-transform: none; widows: 2; word-spacing: 0px; -webkit-text-stroke-width: 0px; background-color: rgb(42, 37, 47); text-decoration-thickness: initial; text-decoration-style: initial; text-decoration-color: initial; float: none; display: inline !important;&quot;&gt;a is already declared&lt;/span&gt;&#10;&#10;" style="text;html=1;align=center;verticalAlign=middle;resizable=0;points=[];autosize=1;strokeColor=none;fillColor=none;" vertex="1" parent="10">
                    <mxGeometry x="-5" y="25" width="130" height="70" as="geometry"/>
                </mxCell>
                <mxCell id="11" value="const a(block)" style="shape=tableRow;horizontal=0;startSize=40;swimlaneHead=0;swimlaneBody=0;top=0;left=0;bottom=0;right=0;dropTarget=0;fillColor=none;collapsible=0;recursiveResize=0;expand=0;fontStyle=1;" vertex="1" parent="2">
                    <mxGeometry y="280" width="400" height="120" as="geometry"/>
                </mxCell>
                <mxCell id="12" value="" style="swimlane;swimlaneHead=0;swimlaneBody=0;fontStyle=0;connectable=0;fillColor=none;startSize=0;collapsible=0;recursiveResize=0;expand=0;fontStyle=1;" vertex="1" parent="11">
                    <mxGeometry x="40" width="120" height="120" as="geometry">
                        <mxRectangle width="120" height="120" as="alternateBounds"/>
                    </mxGeometry>
                </mxCell>
                <mxCell id="13" value="" style="swimlane;swimlaneHead=0;swimlaneBody=0;fontStyle=0;connectable=0;fillColor=none;startSize=0;collapsible=0;recursiveResize=0;expand=0;fontStyle=1;" vertex="1" parent="11">
                    <mxGeometry x="160" width="120" height="120" as="geometry">
                        <mxRectangle width="120" height="120" as="alternateBounds"/>
                    </mxGeometry>
                </mxCell>
                <mxCell id="40" value="block" style="text;html=1;align=center;verticalAlign=middle;resizable=0;points=[];autosize=1;strokeColor=none;fillColor=none;" vertex="1" parent="13">
                    <mxGeometry x="35" y="45" width="50" height="30" as="geometry"/>
                </mxCell>
                <mxCell id="14" value="" style="swimlane;swimlaneHead=0;swimlaneBody=0;fontStyle=0;connectable=0;fillColor=none;startSize=0;collapsible=0;recursiveResize=0;expand=0;fontStyle=1;" vertex="1" parent="11">
                    <mxGeometry x="280" width="120" height="120" as="geometry">
                        <mxRectangle width="120" height="120" as="alternateBounds"/>
                    </mxGeometry>
                </mxCell>
                <mxCell id="43" value="&#10;&lt;span style=&quot;color: rgb(240, 240, 240); font-family: Helvetica; font-size: 12px; font-style: normal; font-variant-ligatures: normal; font-variant-caps: normal; font-weight: 400; letter-spacing: normal; orphans: 2; text-align: center; text-indent: 0px; text-transform: none; widows: 2; word-spacing: 0px; -webkit-text-stroke-width: 0px; background-color: rgb(42, 37, 47); text-decoration-thickness: initial; text-decoration-style: initial; text-decoration-color: initial; float: none; display: inline !important;&quot;&gt;Syntax error&lt;/span&gt;&lt;br style=&quot;border-color: rgb(0, 0, 0); color: rgb(240, 240, 240); font-family: Helvetica; font-size: 12px; font-style: normal; font-variant-ligatures: normal; font-variant-caps: normal; font-weight: 400; letter-spacing: normal; orphans: 2; text-align: center; text-indent: 0px; text-transform: none; widows: 2; word-spacing: 0px; -webkit-text-stroke-width: 0px; background-color: rgb(42, 37, 47); text-decoration-thickness: initial; text-decoration-style: initial; text-decoration-color: initial;&quot;&gt;&lt;span style=&quot;color: rgb(240, 240, 240); font-family: Helvetica; font-size: 12px; font-style: normal; font-variant-ligatures: normal; font-variant-caps: normal; font-weight: 400; letter-spacing: normal; orphans: 2; text-align: center; text-indent: 0px; text-transform: none; widows: 2; word-spacing: 0px; -webkit-text-stroke-width: 0px; background-color: rgb(42, 37, 47); text-decoration-thickness: initial; text-decoration-style: initial; text-decoration-color: initial; float: none; display: inline !important;&quot;&gt;a is already declared&lt;/span&gt;&#10;&#10;" style="text;html=1;align=center;verticalAlign=middle;resizable=0;points=[];autosize=1;strokeColor=none;fillColor=none;" vertex="1" parent="14">
                    <mxGeometry x="-5" y="25" width="130" height="70" as="geometry"/>
                </mxCell>
                <mxCell id="39" value="block" style="text;html=1;align=center;verticalAlign=middle;resizable=0;points=[];autosize=1;strokeColor=none;fillColor=none;" vertex="1" parent="1">
                    <mxGeometry x="185" y="205" width="50" height="30" as="geometry"/>
                </mxCell>
                <mxCell id="44" value="&lt;div style=&quot;color: rgb(212, 212, 212); background-color: rgb(30, 30, 30); font-family: Consolas, &amp;quot;Courier New&amp;quot;, monospace; font-weight: normal; font-size: 15px; line-height: 20px;&quot;&gt;&lt;div&gt;&lt;span style=&quot;color: #569cd6;&quot;&gt;var&lt;/span&gt;&lt;span style=&quot;color: #d4d4d4;&quot;&gt; &lt;/span&gt;&lt;span style=&quot;color: #9cdcfe;&quot;&gt;p1&lt;/span&gt;&lt;span style=&quot;color: #d4d4d4;&quot;&gt; = &lt;/span&gt;&lt;span style=&quot;color: #b5cea8;&quot;&gt;12&lt;/span&gt;&lt;span style=&quot;color: #d4d4d4;&quot;&gt;;&lt;/span&gt;&lt;/div&gt;&lt;div&gt;&lt;span style=&quot;color: #d4d4d4;&quot;&gt;{&lt;/span&gt;&lt;/div&gt;&lt;div&gt;&lt;span style=&quot;color: #d4d4d4;&quot;&gt;&amp;nbsp; &amp;nbsp; &lt;/span&gt;&lt;span style=&quot;color: #569cd6;&quot;&gt;let&lt;/span&gt;&lt;span style=&quot;color: #d4d4d4;&quot;&gt; &lt;/span&gt;&lt;span style=&quot;color: #9cdcfe;&quot;&gt;p1&lt;/span&gt;&lt;span style=&quot;color: #d4d4d4;&quot;&gt; = &lt;/span&gt;&lt;span style=&quot;color: #b5cea8;&quot;&gt;24&lt;/span&gt;&lt;span style=&quot;color: #d4d4d4;&quot;&gt;;&lt;/span&gt;&lt;/div&gt;&lt;div&gt;&lt;span style=&quot;color: #d4d4d4;&quot;&gt;&amp;nbsp; &amp;nbsp; &lt;/span&gt;&lt;span style=&quot;color: #9cdcfe;&quot;&gt;console&lt;/span&gt;&lt;span style=&quot;color: #d4d4d4;&quot;&gt;.&lt;/span&gt;&lt;span style=&quot;color: #dcdcaa;&quot;&gt;log&lt;/span&gt;&lt;span style=&quot;color: #d4d4d4;&quot;&gt;(&lt;/span&gt;&lt;span style=&quot;color: #ce9178;&quot;&gt;&quot;p1&quot;&lt;/span&gt;&lt;span style=&quot;color: #d4d4d4;&quot;&gt;, &lt;/span&gt;&lt;span style=&quot;color: #9cdcfe;&quot;&gt;p1&lt;/span&gt;&lt;span style=&quot;color: #d4d4d4;&quot;&gt;); &lt;/span&gt;&lt;span style=&quot;color: #6a9955;&quot;&gt;//p1 24&lt;/span&gt;&lt;/div&gt;&lt;div&gt;&lt;span style=&quot;color: #d4d4d4;&quot;&gt;}&lt;/span&gt;&lt;/div&gt;&lt;br&gt;&lt;/div&gt;" style="text;whiteSpace=wrap;html=1;" vertex="1" parent="1">
                    <mxGeometry x="180" y="-410" width="310" height="140" as="geometry"/>
                </mxCell>
            </root>
        </mxGraphModel>
    </diagram>
</mxfile>